<mxfile host="app.diagrams.net" modified="2024-02-02T00:00:13.261Z" agent="Mozilla/5.0 (Windows NT 10.0; Win64; x64) AppleWebKit/537.36 (KHTML, like Gecko) Chrome/121.0.0.0 Safari/537.36" etag="f8XSsaiizrH7KZBpvODw" version="22.1.17" type="github">
  <diagram name="Page-1" id="OwfiVeOAE6O_KrkkMr-Q">
    <mxGraphModel dx="794" dy="454" grid="1" gridSize="11" guides="1" tooltips="1" connect="1" arrows="1" fold="1" page="1" pageScale="1" pageWidth="850" pageHeight="1100" math="0" shadow="0">
      <root>
        <mxCell id="0" />
        <mxCell id="1" parent="0" />
        <mxCell id="SMNPBds_AobCi2813BHv-42" value="" style="rounded=0;whiteSpace=wrap;html=1;" vertex="1" parent="1">
          <mxGeometry x="227" y="20" width="60" height="300" as="geometry" />
        </mxCell>
        <mxCell id="SMNPBds_AobCi2813BHv-37" value="" style="verticalLabelPosition=bottom;html=1;verticalAlign=top;align=center;strokeColor=none;fillColor=#00BEF2;shape=mxgraph.azure.user;" vertex="1" parent="1">
          <mxGeometry x="8" y="170" width="30" height="20" as="geometry" />
        </mxCell>
        <mxCell id="SMNPBds_AobCi2813BHv-39" value="" style="verticalLabelPosition=bottom;html=1;verticalAlign=top;align=center;strokeColor=none;fillColor=#00BEF2;shape=mxgraph.azure.website_generic;pointerEvents=1;" vertex="1" parent="1">
          <mxGeometry x="86" y="158.75" width="50" height="42.5" as="geometry" />
        </mxCell>
        <mxCell id="SMNPBds_AobCi2813BHv-41" value="" style="sketch=0;points=[[0,0,0],[0.25,0,0],[0.5,0,0],[0.75,0,0],[1,0,0],[0,1,0],[0.25,1,0],[0.5,1,0],[0.75,1,0],[1,1,0],[0,0.25,0],[0,0.5,0],[0,0.75,0],[1,0.25,0],[1,0.5,0],[1,0.75,0]];outlineConnect=0;fontColor=#232F3E;fillColor=#E7157B;strokeColor=#ffffff;dashed=0;verticalLabelPosition=bottom;verticalAlign=top;align=center;html=1;fontSize=12;fontStyle=0;aspect=fixed;shape=mxgraph.aws4.resourceIcon;resIcon=mxgraph.aws4.api_gateway;" vertex="1" parent="1">
          <mxGeometry x="237" y="145.75" width="38" height="38" as="geometry" />
        </mxCell>
        <mxCell id="SMNPBds_AobCi2813BHv-43" value="" style="endArrow=classic;html=1;rounded=0;" edge="1" parent="1">
          <mxGeometry width="50" height="50" relative="1" as="geometry">
            <mxPoint x="48" y="187.75" as="sourcePoint" />
            <mxPoint x="78" y="188" as="targetPoint" />
          </mxGeometry>
        </mxCell>
        <mxCell id="SMNPBds_AobCi2813BHv-44" value="" style="endArrow=classic;html=1;rounded=0;" edge="1" parent="1">
          <mxGeometry width="50" height="50" relative="1" as="geometry">
            <mxPoint x="108" y="152" as="sourcePoint" />
            <mxPoint x="220" y="102" as="targetPoint" />
            <Array as="points">
              <mxPoint x="108" y="102" />
            </Array>
          </mxGeometry>
        </mxCell>
        <mxCell id="SMNPBds_AobCi2813BHv-45" value="i) Cash&lt;br&gt;II) Redeem&lt;br&gt;iii) Cash+Points" style="text;html=1;strokeColor=none;fillColor=none;align=left;verticalAlign=top;whiteSpace=wrap;rounded=0;fontSize=8;" vertex="1" parent="1">
          <mxGeometry x="150.5" y="151" width="58.5" height="47" as="geometry" />
        </mxCell>
        <mxCell id="SMNPBds_AobCi2813BHv-48" value="IAM" style="rounded=0;whiteSpace=wrap;html=1;" vertex="1" parent="1">
          <mxGeometry x="140" y="20" width="40" height="40" as="geometry" />
        </mxCell>
        <mxCell id="SMNPBds_AobCi2813BHv-49" value="" style="endArrow=classic;html=1;rounded=0;entryX=0.5;entryY=1;entryDx=0;entryDy=0;" edge="1" parent="1" target="SMNPBds_AobCi2813BHv-48">
          <mxGeometry width="50" height="50" relative="1" as="geometry">
            <mxPoint x="160" y="102" as="sourcePoint" />
            <mxPoint x="200" y="52" as="targetPoint" />
          </mxGeometry>
        </mxCell>
        <mxCell id="SMNPBds_AobCi2813BHv-50" value="" style="endArrow=classic;html=1;rounded=0;" edge="1" parent="1">
          <mxGeometry width="50" height="50" relative="1" as="geometry">
            <mxPoint x="220" y="140" as="sourcePoint" />
            <mxPoint x="140" y="139.75" as="targetPoint" />
          </mxGeometry>
        </mxCell>
        <mxCell id="SMNPBds_AobCi2813BHv-52" value="" style="ellipse;whiteSpace=wrap;html=1;aspect=fixed;" vertex="1" parent="1">
          <mxGeometry x="168" y="131" width="20" height="20" as="geometry" />
        </mxCell>
        <mxCell id="SMNPBds_AobCi2813BHv-53" value="&lt;font style=&quot;font-size: 10px;&quot;&gt;3&lt;/font&gt;" style="text;html=1;strokeColor=none;fillColor=none;align=center;verticalAlign=middle;whiteSpace=wrap;rounded=0;" vertex="1" parent="1">
          <mxGeometry x="163" y="131" width="30" height="20" as="geometry" />
        </mxCell>
        <mxCell id="SMNPBds_AobCi2813BHv-47" value="" style="ellipse;whiteSpace=wrap;html=1;aspect=fixed;" vertex="1" parent="1">
          <mxGeometry x="98" y="107" width="20" height="20" as="geometry" />
        </mxCell>
        <mxCell id="SMNPBds_AobCi2813BHv-46" value="&lt;font style=&quot;font-size: 10px;&quot;&gt;1&lt;/font&gt;" style="text;html=1;strokeColor=none;fillColor=none;align=center;verticalAlign=middle;whiteSpace=wrap;rounded=0;" vertex="1" parent="1">
          <mxGeometry x="93" y="107" width="30" height="20" as="geometry" />
        </mxCell>
        <mxCell id="SMNPBds_AobCi2813BHv-54" value="User logs into SkyPlus/LMS" style="text;html=1;strokeColor=none;fillColor=none;align=left;verticalAlign=top;whiteSpace=wrap;rounded=0;fontSize=8;" vertex="1" parent="1">
          <mxGeometry x="32.5" y="100.5" width="58.5" height="38.5" as="geometry" />
        </mxCell>
        <mxCell id="SMNPBds_AobCi2813BHv-55" value="" style="endArrow=classic;html=1;rounded=0;" edge="1" parent="1">
          <mxGeometry width="50" height="50" relative="1" as="geometry">
            <mxPoint x="107" y="199" as="sourcePoint" />
            <mxPoint x="215" y="232" as="targetPoint" />
            <Array as="points">
              <mxPoint x="107" y="232" />
            </Array>
          </mxGeometry>
        </mxCell>
        <mxCell id="SMNPBds_AobCi2813BHv-56" value="" style="ellipse;whiteSpace=wrap;html=1;aspect=fixed;" vertex="1" parent="1">
          <mxGeometry x="97" y="206" width="20" height="20" as="geometry" />
        </mxCell>
        <mxCell id="SMNPBds_AobCi2813BHv-57" value="&lt;font style=&quot;font-size: 10px;&quot;&gt;4&lt;/font&gt;" style="text;html=1;strokeColor=none;fillColor=none;align=center;verticalAlign=middle;whiteSpace=wrap;rounded=0;" vertex="1" parent="1">
          <mxGeometry x="92" y="206" width="30" height="20" as="geometry" />
        </mxCell>
        <mxCell id="SMNPBds_AobCi2813BHv-58" value="User provides O&amp;amp;D and date for search" style="text;html=1;strokeColor=none;fillColor=none;align=left;verticalAlign=top;whiteSpace=wrap;rounded=0;fontSize=8;" vertex="1" parent="1">
          <mxGeometry x="132.5" y="233.5" width="58.5" height="38.5" as="geometry" />
        </mxCell>
        <mxCell id="SMNPBds_AobCi2813BHv-59" value="LMS Services" style="rounded=0;whiteSpace=wrap;html=1;" vertex="1" parent="1">
          <mxGeometry x="407" y="20" width="120" height="68" as="geometry" />
        </mxCell>
        <mxCell id="SMNPBds_AobCi2813BHv-60" value="Skyplus Services" style="rounded=0;whiteSpace=wrap;html=1;" vertex="1" parent="1">
          <mxGeometry x="407" y="170" width="120" height="72" as="geometry" />
        </mxCell>
        <mxCell id="SMNPBds_AobCi2813BHv-61" value="" style="endArrow=classic;html=1;rounded=0;" edge="1" parent="1">
          <mxGeometry width="50" height="50" relative="1" as="geometry">
            <mxPoint x="308" y="206" as="sourcePoint" />
            <mxPoint x="396" y="206" as="targetPoint" />
          </mxGeometry>
        </mxCell>
        <mxCell id="SMNPBds_AobCi2813BHv-62" value="" style="ellipse;whiteSpace=wrap;html=1;aspect=fixed;" vertex="1" parent="1">
          <mxGeometry x="338" y="195" width="20" height="20" as="geometry" />
        </mxCell>
        <mxCell id="SMNPBds_AobCi2813BHv-63" value="&lt;font style=&quot;font-size: 10px;&quot;&gt;5&lt;/font&gt;" style="text;html=1;strokeColor=none;fillColor=none;align=center;verticalAlign=middle;whiteSpace=wrap;rounded=0;" vertex="1" parent="1">
          <mxGeometry x="333" y="195" width="30" height="20" as="geometry" />
        </mxCell>
        <mxCell id="SMNPBds_AobCi2813BHv-64" value="getFlights And Fare is called" style="text;html=1;strokeColor=none;fillColor=none;align=left;verticalAlign=top;whiteSpace=wrap;rounded=0;fontSize=8;" vertex="1" parent="1">
          <mxGeometry x="318.75" y="220" width="58.5" height="33" as="geometry" />
        </mxCell>
        <mxCell id="SMNPBds_AobCi2813BHv-65" value="Offer Engine" style="rounded=0;whiteSpace=wrap;html=1;" vertex="1" parent="1">
          <mxGeometry x="638" y="170" width="120" height="72" as="geometry" />
        </mxCell>
        <mxCell id="SMNPBds_AobCi2813BHv-66" value="" style="endArrow=classic;html=1;rounded=0;" edge="1" parent="1">
          <mxGeometry width="50" height="50" relative="1" as="geometry">
            <mxPoint x="462" y="165" as="sourcePoint" />
            <mxPoint x="627" y="66" as="targetPoint" />
            <Array as="points">
              <mxPoint x="462" y="143" />
              <mxPoint x="550" y="143" />
              <mxPoint x="550" y="66" />
              <mxPoint x="605" y="66" />
            </Array>
          </mxGeometry>
        </mxCell>
        <mxCell id="SMNPBds_AobCi2813BHv-67" value="" style="ellipse;whiteSpace=wrap;html=1;aspect=fixed;" vertex="1" parent="1">
          <mxGeometry x="473" y="132" width="20" height="20" as="geometry" />
        </mxCell>
        <mxCell id="SMNPBds_AobCi2813BHv-68" value="&lt;span style=&quot;font-size: 10px;&quot;&gt;6&lt;/span&gt;" style="text;html=1;strokeColor=none;fillColor=none;align=center;verticalAlign=middle;whiteSpace=wrap;rounded=0;" vertex="1" parent="1">
          <mxGeometry x="468" y="132" width="30" height="20" as="geometry" />
        </mxCell>
        <mxCell id="SMNPBds_AobCi2813BHv-70" value="1N API/Services" style="rounded=0;whiteSpace=wrap;html=1;" vertex="1" parent="1">
          <mxGeometry x="638" y="20" width="120" height="72" as="geometry" />
        </mxCell>
        <mxCell id="SMNPBds_AobCi2813BHv-71" value="getFlights And Fare of Navitaire is called" style="text;html=1;strokeColor=none;fillColor=none;align=left;verticalAlign=top;whiteSpace=wrap;rounded=0;fontSize=8;" vertex="1" parent="1">
          <mxGeometry x="550" y="33" width="78.25" height="33" as="geometry" />
        </mxCell>
        <mxCell id="SMNPBds_AobCi2813BHv-72" value="" style="endArrow=classic;html=1;rounded=0;" edge="1" parent="1">
          <mxGeometry width="50" height="50" relative="1" as="geometry">
            <mxPoint x="304" y="52" as="sourcePoint" />
            <mxPoint x="392" y="52" as="targetPoint" />
          </mxGeometry>
        </mxCell>
        <mxCell id="SMNPBds_AobCi2813BHv-73" value="" style="ellipse;whiteSpace=wrap;html=1;aspect=fixed;" vertex="1" parent="1">
          <mxGeometry x="334" y="41" width="20" height="20" as="geometry" />
        </mxCell>
        <mxCell id="SMNPBds_AobCi2813BHv-74" value="&lt;font style=&quot;font-size: 10px;&quot;&gt;2&lt;/font&gt;" style="text;html=1;strokeColor=none;fillColor=none;align=center;verticalAlign=middle;whiteSpace=wrap;rounded=0;" vertex="1" parent="1">
          <mxGeometry x="329" y="41" width="30" height="20" as="geometry" />
        </mxCell>
        <mxCell id="SMNPBds_AobCi2813BHv-75" value="User&#39;s FQTV and Tier is picked" style="text;html=1;strokeColor=none;fillColor=none;align=left;verticalAlign=top;whiteSpace=wrap;rounded=0;fontSize=8;" vertex="1" parent="1">
          <mxGeometry x="314.75" y="66" width="58.5" height="33" as="geometry" />
        </mxCell>
        <mxCell id="SMNPBds_AobCi2813BHv-76" value="" style="endArrow=classic;html=1;rounded=0;" edge="1" parent="1">
          <mxGeometry width="50" height="50" relative="1" as="geometry">
            <mxPoint x="693" y="100.5" as="sourcePoint" />
            <mxPoint x="539" y="198" as="targetPoint" />
            <Array as="points">
              <mxPoint x="693" y="132" />
              <mxPoint x="583" y="132" />
            </Array>
          </mxGeometry>
        </mxCell>
        <mxCell id="SMNPBds_AobCi2813BHv-77" value="" style="ellipse;whiteSpace=wrap;html=1;aspect=fixed;" vertex="1" parent="1">
          <mxGeometry x="646" y="123" width="20" height="20" as="geometry" />
        </mxCell>
        <mxCell id="SMNPBds_AobCi2813BHv-78" value="&lt;span style=&quot;font-size: 10px;&quot;&gt;7&lt;/span&gt;" style="text;html=1;strokeColor=none;fillColor=none;align=center;verticalAlign=middle;whiteSpace=wrap;rounded=0;" vertex="1" parent="1">
          <mxGeometry x="641" y="123" width="30" height="20" as="geometry" />
        </mxCell>
        <mxCell id="SMNPBds_AobCi2813BHv-79" value="Flights and Cash Fare for the search are returned" style="text;html=1;strokeColor=none;fillColor=none;align=left;verticalAlign=top;whiteSpace=wrap;rounded=0;fontSize=8;" vertex="1" parent="1">
          <mxGeometry x="572" y="94" width="78.25" height="33" as="geometry" />
        </mxCell>
        <mxCell id="SMNPBds_AobCi2813BHv-84" value="" style="endArrow=classic;html=1;rounded=0;" edge="1" parent="1">
          <mxGeometry width="50" height="50" relative="1" as="geometry">
            <mxPoint x="541" y="217" as="sourcePoint" />
            <mxPoint x="629" y="217" as="targetPoint" />
          </mxGeometry>
        </mxCell>
        <mxCell id="SMNPBds_AobCi2813BHv-85" value="" style="ellipse;whiteSpace=wrap;html=1;aspect=fixed;" vertex="1" parent="1">
          <mxGeometry x="571" y="206" width="20" height="20" as="geometry" />
        </mxCell>
        <mxCell id="SMNPBds_AobCi2813BHv-86" value="&lt;font style=&quot;font-size: 10px;&quot;&gt;5&lt;/font&gt;" style="text;html=1;strokeColor=none;fillColor=none;align=center;verticalAlign=middle;whiteSpace=wrap;rounded=0;" vertex="1" parent="1">
          <mxGeometry x="566" y="206" width="30" height="20" as="geometry" />
        </mxCell>
        <mxCell id="SMNPBds_AobCi2813BHv-87" value="getFlights And Fare is called" style="text;html=1;strokeColor=none;fillColor=none;align=left;verticalAlign=top;whiteSpace=wrap;rounded=0;fontSize=8;" vertex="1" parent="1">
          <mxGeometry x="551.75" y="231" width="58.5" height="33" as="geometry" />
        </mxCell>
      </root>
    </mxGraphModel>
  </diagram>
</mxfile>
